<?xml version="1.0" standalone="no"?>
<!DOCTYPE svg PUBLIC "-//W3C//DTD SVG 20010904//EN"
 "http://www.w3.org/TR/2001/REC-SVG-20010904/DTD/svg10.dtd">
<svg version="1.0" xmlns="http://www.w3.org/2000/svg"
 width="368.000000pt" height="400.000000pt" viewBox="0 0 368.000000 400.000000"
 preserveAspectRatio="xMidYMid meet">

<g transform="translate(0.000000,400.000000) scale(0.100000,-0.100000)"
fill="#000000" stroke="none">
<path d="M1405 3606 l-260 -52 -3 -42 c-2 -23 1 -42 5 -42 9 0 366 68 481 91
l52 10 0 45 c0 24 -3 43 -7 43 -5 -1 -125 -25 -268 -53z"/>
<path d="M3590 3633 c-36 -8 -216 -45 -400 -82 l-335 -67 -3 -334 c-1 -183 1
-337 5 -341 11 -11 252 -53 260 -45 3 3 8 154 11 334 l5 328 52 10 c39 7 51 6
48 -2 -3 -8 12 -10 49 -8 29 2 54 8 56 14 2 5 10 10 18 10 9 0 13 -4 9 -9 -3
-6 14 -14 37 -18 24 -5 44 -6 46 -2 2 5 15 4 28 -2 14 -5 38 -9 54 -9 16 0 32
-5 35 -10 3 -6 18 -7 32 -4 18 5 24 3 19 -5 -4 -6 -2 -11 3 -11 6 0 11 5 11
11 0 6 7 9 15 5 13 -5 15 13 15 124 0 72 -1 130 -2 129 -2 -1 -32 -8 -68 -16z"/>
<path d="M1083 3295 c9 -178 -1 -369 -17 -356 -14 11 -35 14 -108 12 l-58 -1
0 -41 0 -41 -49 7 c-27 4 -148 28 -268 54 -120 27 -222 45 -227 40 -10 -9 -4
-555 6 -565 4 -3 22 -1 39 5 18 6 35 8 38 3 8 -10 92 -9 108 1 21 13 54 19
126 22 38 2 74 9 81 14 7 6 15 9 18 6 3 -3 31 -7 64 -9 50 -3 61 -8 71 -28 11
-20 22 -24 80 -28 42 -4 71 -2 75 5 4 5 9 105 10 220 l2 210 5 -198 c6 -185 7
-199 26 -210 30 -18 140 -35 183 -28 l37 6 3 56 3 55 157 38 c86 21 165 43
175 48 15 8 17 27 17 182 l0 174 -32 4 c-18 3 -90 18 -160 33 -123 28 -128 30
-128 55 0 52 13 100 26 100 8 0 14 6 14 13 0 8 3 7 10 -3 7 -11 30 -14 106
-12 136 3 146 9 160 102 6 41 10 76 9 78 -4 5 -504 111 -557 118 l-51 7 6
-148z m397 -139 c0 -3 -4 -8 -10 -11 -5 -3 -10 -1 -10 4 0 6 5 11 10 11 6 0
10 -2 10 -4z m107 -3 c-20 -2 -52 -2 -70 0 -17 2 0 4 38 4 39 0 53 -2 32 -4z"/>
<path d="M2660 3418 c-52 -10 -185 -39 -295 -63 -110 -24 -240 -51 -290 -60
-49 -9 -98 -18 -107 -21 -16 -5 -18 -23 -18 -193 0 -223 9 -346 23 -332 6 6
17 7 26 2 9 -5 31 -11 49 -14 l32 -5 1 81 c1 45 5 114 9 152 l7 70 1 -77 c1
-42 4 -83 7 -90 4 -11 24 -14 78 -12 88 3 238 13 292 19 102 12 264 15 270 6
3 -6 -6 -13 -20 -17 -30 -8 -31 -15 -4 -40 17 -16 22 -16 29 -4 8 13 15 622 8
619 -2 0 -46 -10 -98 -21z"/>
<path d="M1747 3297 c-9 -25 5 -441 15 -454 6 -7 14 -10 19 -7 5 3 9 0 9 -6 0
-8 9 -10 25 -6 14 4 25 2 25 -4 0 -5 23 -9 50 -9 l50 2 0 228 c0 208 -1 228
-17 233 -10 2 -45 10 -78 16 -33 6 -67 13 -76 16 -9 3 -19 -2 -22 -9z"/>
<path d="M2864 2707 c3 -10 6 -24 6 -32 0 -17 39 -27 59 -15 9 5 11 10 4 10
-6 0 -10 9 -8 19 4 21 -30 37 -41 19 -4 -6 -10 -5 -16 3 -7 11 -8 9 -4 -4z"/>
<path d="M2928 2633 c7 -3 16 -2 19 1 4 3 -2 6 -13 5 -11 0 -14 -3 -6 -6z"/>
<path d="M2650 2598 c1 -33 20 -42 87 -39 44 1 34 27 -15 41 -49 13 -72 13
-72 -2z"/>
<path d="M2678 2533 c7 -3 16 -2 19 1 4 3 -2 6 -13 5 -11 0 -14 -3 -6 -6z"/>
<path d="M2718 2523 c7 -3 16 -2 19 1 4 3 -2 6 -13 5 -11 0 -14 -3 -6 -6z"/>
<path d="M2702 2473 c-34 -8 -60 -19 -57 -24 4 -5 -7 -6 -25 -3 -16 4 -30 3
-30 -2 0 -5 -16 -10 -36 -11 -42 -2 -54 -10 -35 -23 9 -5 20 -3 28 6 16 16 37
19 28 4 -3 -5 -2 -10 4 -10 5 0 11 4 13 10 2 5 29 11 60 13 32 2 61 6 64 10 4
4 13 2 21 -4 10 -9 13 -8 13 5 0 10 4 15 9 11 6 -3 9 4 8 15 -1 11 -1 19 -2
19 0 -1 -28 -8 -63 -16z"/>
<path d="M2478 2413 c7 -3 16 -2 19 1 4 3 -2 6 -13 5 -11 0 -14 -3 -6 -6z"/>
<path d="M2360 2389 c-38 -11 -49 -16 -25 -12 22 3 49 7 61 8 11 1 25 4 31 8
6 4 19 4 29 0 12 -4 15 -3 10 5 -9 16 -27 14 -106 -9z"/>
<path d="M2268 2363 c7 -3 16 -2 19 1 4 3 -2 6 -13 5 -11 0 -14 -3 -6 -6z"/>
<path d="M960 2047 c0 -4 -5 -5 -12 -1 -6 4 -8 3 -4 -4 3 -6 2 -13 -2 -16 -10
-6 -8 -48 2 -64 9 -14 87 -5 105 12 14 15 14 18 1 26 -10 7 -11 10 -2 10 6 0
12 5 12 10 0 6 -7 10 -15 10 -8 0 -15 4 -15 9 0 5 -16 11 -35 13 -19 2 -35 0
-35 -5z"/>
<path d="M1110 2005 c-8 -10 -9 -15 -1 -16 6 -1 16 -3 21 -4 6 -1 16 -3 24 -4
8 0 22 -8 30 -17 9 -8 16 -11 16 -5 0 5 -6 16 -14 24 -11 11 -12 17 -3 26 8 8
6 11 -10 11 -12 0 -24 -6 -26 -12 -4 -10 -7 -10 -15 0 -7 10 -11 10 -22 -3z"/>
<path d="M1225 1940 c3 -5 10 -10 16 -10 5 0 9 5 9 10 0 6 -7 10 -16 10 -8 0
-12 -4 -9 -10z"/>
<path d="M2970 1481 c-80 -21 -157 -41 -172 -44 -24 -6 -28 -13 -28 -42 0 -40
46 -24 -390 -140 -305 -82 -297 -81 -412 -49 -17 5 -18 -13 -18 -270 0 -152 2
-276 4 -276 2 0 34 9 70 20 l66 21 0 145 c0 133 1 145 18 142 15 -3 17 -19 20
-141 l3 -138 27 -12 c15 -6 36 -20 46 -29 11 -10 22 -18 25 -18 3 0 118 -31
255 -69 l248 -68 127 37 c240 71 271 83 277 105 9 40 -1 858 -11 861 -5 1 -75
-15 -155 -35z"/>
<path d="M1276 1320 c-54 -16 -100 -31 -102 -33 -12 -12 43 -47 98 -61 34 -9
138 -36 231 -60 l167 -44 0 77 0 78 -139 36 c-77 21 -143 37 -148 36 -4 0 -52
-13 -107 -29z"/>
<path d="M1200 1213 c1 -5 7 -37 15 -73 8 -36 14 -83 15 -106 0 -49 -44 -142
-94 -198 -49 -56 -58 -99 -54 -273 3 -134 5 -153 23 -173 18 -20 27 -22 85
-17 58 5 387 98 454 129 l26 11 -2 295 -3 295 -45 13 c-53 17 -401 104 -412
104 -5 0 -8 -3 -8 -7z"/>
<path d="M1740 818 c0 -49 4 -69 18 -81 20 -17 163 -67 174 -60 14 8 9 183 -4
184 -14 1 -26 2 -125 14 l-63 8 0 -65z"/>
<path d="M2144 591 l-41 -19 -7 -125 c-3 -69 -9 -133 -12 -142 -8 -19 -24 -20
-24 0 0 22 -21 18 -27 -5 -4 -14 -11 -19 -23 -15 -10 3 -21 1 -25 -5 -5 -8
-11 -8 -21 1 -12 10 -14 -9 -14 -128 l0 -140 113 33 c61 18 319 95 572 170
253 75 464 139 469 142 5 3 -67 25 -160 49 -93 24 -300 79 -461 123 -161 44
-294 80 -295 80 -2 0 -21 -9 -44 -19z"/>
<path d="M1530 406 c-103 -30 -394 -119 -429 -131 -8 -3 -12 -7 -9 -10 6 -7
548 -165 564 -165 12 0 14 30 14 170 0 130 -3 170 -12 169 -7 0 -65 -15 -128
-33z"/>
<path d="M1913 402 c-11 -7 -18 -62 -29 -256 -7 -114 -3 -125 39 -126 15 0 17
13 16 143 -1 173 -9 249 -26 239z"/>
</g>
</svg>
