<?xml version="1.0" standalone="no"?>
<!DOCTYPE svg PUBLIC "-//W3C//DTD SVG 20010904//EN"
 "http://www.w3.org/TR/2001/REC-SVG-20010904/DTD/svg10.dtd">
<svg version="1.0" xmlns="http://www.w3.org/2000/svg"
 width="368.000000pt" height="331.000000pt" viewBox="0 0 368.000000 331.000000"
 preserveAspectRatio="xMidYMid meet">

<g transform="translate(0.000000,331.000000) scale(0.100000,-0.100000)"
fill="#000000" stroke="none">
<path d="M1908 3229 c-10 -5 -18 -17 -18 -25 0 -8 -11 -20 -25 -26 -14 -6 -25
-14 -25 -18 0 -18 -41 -48 -60 -43 -21 6 -64 -23 -55 -38 3 -4 -1 -14 -10 -22
-13 -13 -6 -16 53 -28 72 -15 76 -15 107 -4 20 6 20 6 0 -6 -18 -11 -17 -13
18 -25 26 -9 46 -10 62 -4 14 5 32 7 42 3 9 -4 14 -2 10 4 -3 5 22 15 61 23
94 18 104 25 62 43 l-35 15 67 1 c56 1 69 4 78 20 19 36 11 47 -37 58 -27 5
-57 14 -68 18 -14 6 -17 5 -10 -3 6 -6 35 -18 65 -26 l55 -16 -50 5 c-68 5
-80 8 -101 25 -11 9 -15 10 -10 3 4 -7 3 -13 -3 -13 -5 0 -11 6 -14 13 -3 9
-7 9 -20 -2 -15 -12 -17 -11 -17 5 0 13 -3 15 -8 7 -4 -6 -43 -15 -87 -18
l-80 -6 23 20 c13 11 36 30 50 41 18 13 20 18 8 13 -13 -4 -17 -3 -12 5 9 14
6 14 -16 1z m-73 -159 c-10 -11 -21 -17 -24 -14 -3 3 3 12 13 20 28 20 32 17
11 -6z"/>
<path d="M1705 3111 c-3 -6 -13 -11 -21 -11 -8 0 -31 -11 -50 -24 l-35 -24 40
-4 c30 -2 41 0 41 10 0 8 -5 10 -12 6 -10 -6 -9 -3 0 8 8 9 19 15 26 12 8 -3
16 3 20 12 7 20 1 30 -9 15z"/>
<path d="M2365 3019 c5 -15 4 -19 -4 -15 -6 4 -11 2 -11 -3 0 -17 15 -13 34 8
15 17 15 19 1 25 -25 9 -27 8 -20 -15z"/>
<path d="M2389 2994 c-23 -26 -23 -26 -2 -20 25 8 38 -7 28 -32 -6 -16 -7 -16
-16 1 -6 9 -14 17 -20 17 -6 0 2 -15 16 -34 25 -33 70 -52 81 -34 3 4 9 6 13
3 10 -6 6 80 -5 96 -5 8 -9 8 -14 -1 -9 -15 -30 -4 -30 16 0 22 -24 17 -51
-12z"/>
<path d="M1965 2970 c11 -5 27 -9 35 -9 9 0 8 4 -5 9 -11 5 -27 9 -35 9 -9 0
-8 -4 5 -9z"/>
<path d="M2218 2893 c7 -3 16 -2 19 1 4 3 -2 6 -13 5 -11 0 -14 -3 -6 -6z"/>
<path d="M2220 2869 c0 -5 5 -7 10 -4 6 3 17 -1 26 -9 8 -9 21 -16 27 -16 16
1 -34 39 -50 40 -7 0 -13 -5 -13 -11z"/>
<path d="M2859 2837 c-1 -7 -1 -18 0 -25 1 -8 -5 -22 -14 -32 -10 -11 -12 -21
-7 -24 13 -8 3 -46 -12 -46 -8 0 -7 -3 1 -8 9 -5 9 -19 3 -47 -5 -22 -10 -57
-10 -78 0 -22 -7 -45 -16 -55 -11 -10 -13 -17 -5 -20 6 -2 11 -11 11 -19 0 -9
-6 -13 -15 -9 -10 4 -15 -1 -15 -14 0 -11 -4 -20 -9 -20 -4 0 -16 -17 -25 -37
-9 -21 -14 -28 -12 -15 2 12 1 20 -4 17 -11 -7 -19 -45 -9 -45 5 0 3 -12 -3
-26 -7 -15 -14 -21 -16 -15 -3 9 -8 9 -18 0 -10 -8 -8 2 6 35 11 27 18 52 14
57 -3 5 -1 9 5 9 15 0 24 81 12 110 -9 25 -9 25 -17 -10 -5 -22 -9 -29 -13
-18 -8 20 -51 6 -51 -17 0 -8 -8 -15 -19 -15 -22 0 -60 -52 -43 -58 7 -2 12
-11 12 -19 0 -9 -6 -13 -15 -9 -10 4 -17 -6 -25 -32 -6 -20 -17 -48 -26 -62
-15 -25 -15 -25 -8 -1 4 14 2 21 -4 17 -5 -3 -13 -21 -16 -40 -7 -36 -42 -84
-48 -66 -2 7 -13 4 -29 -9 -15 -11 -29 -17 -33 -13 -4 3 -4 -2 0 -12 5 -13 4
-17 -3 -13 -6 4 -13 0 -17 -8 -5 -15 15 -21 28 -8 3 4 12 8 19 9 7 2 22 6 35
10 31 9 29 -13 -3 -28 -14 -6 -25 -18 -25 -27 0 -17 49 -68 59 -63 3 2 8 -3
11 -12 3 -8 39 -54 81 -103 41 -48 88 -106 104 -128 23 -32 14 -26 -41 28 -38
37 -73 67 -76 67 -4 0 -28 13 -54 30 -26 16 -63 35 -83 41 -20 7 -42 19 -49
28 -7 9 -3 -4 8 -27 12 -24 19 -46 16 -49 -2 -3 -37 19 -78 49 -120 89 -195
137 -202 131 -3 -4 -6 0 -6 7 0 7 -3 11 -6 8 -6 -7 -167 59 -273 111 -75 36
-95 52 -128 105 -25 39 -25 39 -6 65 33 44 76 52 158 29 90 -24 247 -101 355
-173 90 -60 111 -69 122 -51 5 7 8 3 8 -9 1 -18 2 -17 14 5 18 34 28 80 18 80
-5 0 -15 -11 -22 -25 -24 -45 -22 -18 4 42 30 73 58 216 54 280 -3 41 -7 49
-36 66 -36 21 -53 17 -32 -8 10 -12 10 -15 0 -15 -10 0 -9 -4 1 -17 7 -10 1
-7 -13 6 -16 14 -33 21 -43 17 -21 -8 -53 10 -85 46 -21 23 -36 29 -88 34 -40
5 -58 10 -50 15 8 6 -4 9 -32 9 -33 0 -41 3 -30 10 10 7 -6 8 -50 4 l-65 -5
40 19 c44 21 73 48 52 49 -6 0 -48 5 -93 11 -76 10 -267 3 -379 -14 -146 -22
-373 -93 -513 -159 -113 -54 -168 -87 -274 -167 -43 -32 -81 -58 -86 -58 -11
0 -94 -167 -112 -225 -8 -22 -43 -74 -85 -121 -211 -242 -350 -504 -407 -769
-19 -90 -16 -392 5 -477 52 -212 155 -379 316 -514 64 -53 176 -114 219 -119
13 -1 29 -8 35 -14 9 -9 7 -11 -8 -6 -12 4 -9 0 7 -9 31 -18 141 -46 178 -45
31 1 20 5 -54 19 -91 18 -51 30 44 13 137 -24 142 -26 85 -33 -41 -5 -28 -7
72 -14 67 -4 150 -5 185 -1 111 13 289 64 393 114 l101 48 49 -34 c133 -90
345 -179 485 -204 167 -29 389 -7 508 52 82 40 200 135 258 207 42 52 124 205
124 231 0 6 26 27 58 47 63 40 345 322 423 424 137 179 189 400 142 603 l-16
72 -12 -61 c-14 -77 -60 -154 -141 -237 -68 -70 -213 -175 -314 -226 -36 -19
-78 -43 -93 -53 -16 -11 -29 -19 -31 -17 -7 11 -56 141 -55 147 0 4 9 -10 18
-31 l18 -38 14 33 c8 18 14 35 14 38 0 3 15 25 34 50 82 112 114 213 109 343
-3 76 -8 102 -31 147 -27 53 -117 171 -117 153 0 -5 9 -49 20 -99 23 -104 23
-104 11 -104 -5 0 -17 24 -26 53 -9 28 -20 61 -25 72 -4 11 -16 54 -25 95 -28
121 -30 123 -49 57 -11 -37 -14 -63 -8 -70 17 -22 52 -127 51 -155 0 -21 -9
-9 -37 51 l-37 78 -50 -117 c-27 -64 -54 -127 -58 -138 -7 -16 2 -40 37 -101
46 -79 141 -293 134 -300 -2 -2 -23 40 -46 93 -35 83 -114 233 -177 338 l-17
29 21 -24 c13 -14 25 -20 30 -15 19 21 111 238 144 340 20 60 45 166 57 235
37 212 18 490 -36 546 -7 7 -15 26 -19 43 -8 36 -24 41 -17 5 6 -32 -15 -33
-27 -1 -10 26 -40 43 -42 23z m91 -100 c0 -7 7 -25 15 -41 10 -19 17 -69 20
-150 3 -90 2 -110 -5 -77 -5 24 -7 48 -4 53 3 5 1 15 -5 22 -6 7 -15 44 -20
82 -5 38 -13 84 -17 103 -5 25 -4 32 4 27 7 -4 12 -13 12 -19z m-60 -7 c0 -5
-2 -10 -4 -10 -3 0 -8 5 -11 10 -3 6 -1 10 4 10 6 0 11 -4 11 -10z m-1180 -40
c-8 -5 -10 -10 -5 -10 19 -1 -41 -28 -79 -35 -36 -7 -37 -7 -25 13 13 20 61
39 104 41 16 1 17 -1 5 -9z m1219 -58 c1 -13 -3 -20 -9 -17 -5 3 -10 23 -9 43
0 30 2 33 9 17 5 -11 9 -30 9 -43z m-62 -139 c-3 -10 -5 -4 -5 12 0 17 2 24 5
18 2 -7 2 -21 0 -30z m-2155 -135 c3 -36 -3 -57 -38 -123 -23 -44 -49 -103
-58 -131 -15 -47 -43 -74 -76 -74 -15 0 19 122 56 200 35 76 94 170 105 170 4
0 9 -19 11 -42z m2067 5 c-28 -47 -29 -48 -29 -37 0 12 38 74 46 74 3 0 -5
-17 -17 -37z m-1078 -177 c49 -37 126 -126 110 -126 -9 0 -195 95 -210 107 -6
4 40 53 49 53 4 0 27 -15 51 -34z m868 -22 c-6 -16 -13 -24 -16 -17 -5 13 16
58 23 50 3 -2 -1 -17 -7 -33z m-37 -16 c-7 -7 -12 -8 -12 -2 0 6 3 14 7 17 3
4 9 5 12 2 2 -3 -1 -11 -7 -17z m-24 -11 c2 -10 -4 -20 -13 -23 -21 -8 -25 -3
-18 24 6 25 26 24 31 -1z m-2062 -229 c-9 -13 -24 -34 -33 -48 -9 -14 -32 -45
-50 -70 -18 -25 -32 -47 -31 -50 2 -3 -6 -15 -17 -27 -19 -20 -72 -119 -108
-203 -9 -20 -28 -76 -43 -125 -26 -82 -28 -104 -28 -252 -1 -90 -2 -163 -4
-163 -7 0 -23 57 -32 117 -8 48 -8 93 1 162 6 53 13 113 14 134 1 20 9 45 17
55 17 20 99 192 92 192 -3 0 4 10 16 22 19 21 24 37 21 66 -1 7 3 11 10 10 13
-3 52 59 44 72 -3 4 2 10 10 14 8 3 15 13 15 21 0 9 4 14 9 10 5 -3 16 4 24
15 7 11 16 17 19 14 4 -3 19 10 34 30 31 38 47 41 20 4z m1485 -189 c38 -34
69 -65 69 -69 0 -9 -70 -132 -80 -140 -4 -3 -28 -36 -54 -73 -39 -55 -60 -74
-109 -99 -34 -16 -79 -31 -100 -32 l-40 -2 27 21 c25 20 26 26 26 108 l0 87
63 63 c47 46 71 80 92 130 15 37 30 67 33 67 2 0 35 -27 73 -61z m-836 21 c-3
-5 -1 -20 6 -32 l11 -23 -21 21 c-21 19 -20 61 0 48 5 -3 7 -9 4 -14z m261
-72 c4 -15 1 -26 -12 -35 -11 -8 -18 -18 -17 -23 3 -9 -51 -30 -78 -30 -10 0
-21 5 -25 12 -4 6 -3 8 3 5 6 -4 26 2 45 11 33 17 34 19 20 40 -13 20 -13 22
6 22 12 0 24 5 27 10 10 16 23 11 31 -12z m-136 -38 c-22 -15 -44 -7 -48 15
-3 20 -3 20 13 1 15 -19 15 -19 15 4 0 23 1 23 18 7 15 -16 15 -19 2 -27z
m-18 -37 c15 -14 18 -32 18 -132 0 -72 -4 -111 -9 -106 -6 6 -23 37 -40 69
-27 55 -29 62 -15 87 8 16 14 44 14 64 0 39 5 42 32 18z m256 -3 c-7 -11 -18
-20 -25 -20 -7 0 -13 -5 -13 -11 0 -6 7 -9 15 -5 8 3 15 1 15 -4 0 -11 -60
-11 -140 0 -43 5 -47 8 -20 9 19 0 52 6 74 12 21 6 48 12 59 15 11 2 25 8 31
14 16 16 17 12 4 -10z m627 -88 c-15 -26 -52 -74 -83 -107 -55 -58 -55 -53 0
12 15 18 42 59 60 92 18 33 36 57 41 54 4 -2 -4 -26 -18 -51z m-1705 -13 c0
-16 -13 -39 -21 -39 -5 0 -9 11 -9 23 0 14 6 24 15 24 8 0 15 -4 15 -8z m3150
-327 c-44 -82 -56 -99 -65 -90 -3 3 11 37 31 74 54 102 67 120 72 106 2 -7
-15 -47 -38 -90z m-581 -86 c21 -71 21 -91 -3 -65 -18 20 -56 126 -56 157 l0
27 19 -25 c11 -13 29 -55 40 -94z m-2229 -32 c41 -69 105 -164 142 -210 37
-47 68 -86 68 -88 0 -6 -126 14 -160 26 -80 26 -126 88 -140 191 -9 62 -3 207
9 207 3 0 40 -57 81 -126z m-342 -26 c6 -7 20 -42 32 -78 34 -101 97 -181 199
-253 l26 -19 -48 5 c-92 9 -202 110 -233 214 -28 92 -12 174 24 131z m2835
-28 c-39 -37 -73 -54 -58 -29 8 12 85 69 94 69 3 0 -13 -18 -36 -40z m-843
-25 c10 -12 10 -19 2 -27 -15 -15 -48 14 -38 31 10 15 21 14 36 -4z m-155 -95
c-9 -16 -18 -30 -21 -30 -2 0 2 14 11 30 9 17 18 30 21 30 2 0 -2 -13 -11 -30z
m-2026 -73 c39 -82 114 -190 165 -236 14 -14 26 -29 26 -35 0 -17 -79 64 -126
130 -58 81 -128 224 -110 224 4 0 24 -37 45 -83z m959 -674 c-10 -2 -26 -2
-35 0 -10 3 -2 5 17 5 19 0 27 -2 18 -5z m-120 -10 c-21 -2 -57 -2 -80 0 -24
2 -7 4 37 4 44 0 63 -2 43 -4z"/>
<path d="M2486 2133 c-6 -14 -5 -15 5 -6 7 7 10 15 7 18 -3 3 -9 -2 -12 -12z"/>
<path d="M2270 2761 c61 -56 94 -74 56 -32 -28 31 -9 47 23 19 14 -12 10 -6
-9 15 -37 41 -89 77 -60 43 13 -17 12 -17 -24 -2 -21 9 -41 16 -45 16 -3 -1
23 -27 59 -59z"/>
<path d="M2310 2815 c0 -2 10 -10 23 -16 20 -11 21 -11 8 4 -13 16 -31 23 -31
12z"/>
<path d="M2429 2393 c-6 -16 -12 -41 -15 -58 -3 -24 0 -21 20 20 28 57 30 65
16 65 -6 0 -15 -12 -21 -27z"/>
<path d="M2453 2273 c-15 -5 -17 -29 -4 -37 5 -3 11 5 13 19 3 14 5 25 4 24 0
0 -7 -3 -13 -6z"/>
</g>
</svg>
